HIERARCHY
ROOT Hips
{
	OFFSET 0.000000 0.000000 0.000000
	CHANNELS 6 Xposition Yposition Zposition Zrotation Yrotation Xrotation 
	JOINT LHipJoint
	{
		OFFSET 0.000000 0.000000 0.000000
		CHANNELS 3 Zrotation Yrotation Xrotation
		JOINT LeftUpLeg
		{
			OFFSET 1.363060 -1.794630 0.839290
			CHANNELS 3 Zrotation Yrotation Xrotation
			JOINT LeftLeg
			{
				OFFSET 2.448110 -6.726130 0.000000
				CHANNELS 3 Zrotation Yrotation Xrotation
				JOINT LeftFoot
				{
					OFFSET 2.562200 -7.039590 0.000000
					CHANNELS 3 Zrotation Yrotation Xrotation
					JOINT LeftToeBase
					{
						OFFSET 0.157640 -0.433110 2.322550
						CHANNELS 3 Zrotation Yrotation Xrotation
						End Site
						{
							OFFSET 0.000000 0.000000 0.000000
						}
					}
				}
			}
		}
	}
	JOINT RHipJoint
	{
		OFFSET 0.000000 0.000000 0.000000
		CHANNELS 3 Zrotation Yrotation Xrotation
		JOINT RightUpLeg
		{
			OFFSET -1.305520 -1.794630 0.839290
			CHANNELS 3 Zrotation Yrotation Xrotation
			JOINT RightLeg
			{
				OFFSET -2.542530 -6.985550 0.000000
				CHANNELS 3 Zrotation Yrotation Xrotation
				JOINT RightFoot
				{
					OFFSET -2.568260 -7.056230 0.000000
					CHANNELS 3 Zrotation Yrotation Xrotation
					JOINT RightToeBase
					{
						OFFSET -0.164730 -0.452590 2.363150
						CHANNELS 3 Zrotation Yrotation Xrotation
						End Site
						{
							OFFSET 0.000000 0.000000 0.000000
						}
					}
				}
			}
		}
	}
	JOINT LowerBack
	{
		OFFSET 0.000000 0.000000 0.000000
		CHANNELS 3 Zrotation Yrotation Xrotation
		JOINT Spine
		{
			OFFSET 0.028270 2.035590 -0.193380
			CHANNELS 3 Zrotation Yrotation Xrotation
			JOINT Spine1
			{
				OFFSET 0.056720 2.048850 -0.042750
				CHANNELS 3 Zrotation Yrotation Xrotation
				JOINT Neck
				{
					OFFSET 0.000000 0.000000 0.000000
					CHANNELS 3 Zrotation Yrotation Xrotation
					JOINT Neck1
					{
						OFFSET -0.054170 1.746240 0.172020
						CHANNELS 3 Zrotation Yrotation Xrotation
						JOINT Head
						{
							OFFSET 0.104070 1.761360 -0.123970
							CHANNELS 3 Zrotation Yrotation Xrotation
							End Site
							{
								OFFSET 0.000000 0.000000 0.000000
							}
						}
					}
				}
				JOINT LeftShoulder
				{
					OFFSET 0.000000 0.000000 0.000000
					CHANNELS 3 Zrotation Yrotation Xrotation
					JOINT LeftArm
					{
						OFFSET 3.362410 1.200890 -0.311210
						CHANNELS 3 Zrotation Yrotation Xrotation
						JOINT LeftForeArm
						{
							OFFSET 4.983000 -0.000000 -0.000000
							CHANNELS 3 Zrotation Yrotation Xrotation
							JOINT LeftHand
							{
								OFFSET 3.483560 -0.000000 -0.000000
								CHANNELS 3 Zrotation Yrotation Xrotation
								JOINT LeftFingerBase
								{
									OFFSET 0.000000 0.000000 0.000000
									CHANNELS 3 Zrotation Yrotation Xrotation
									JOINT LeftHandIndex1
									{
										OFFSET 0.715260 -0.000000 -0.000000
										CHANNELS 3 Zrotation Yrotation Xrotation
										End Site
										{
											OFFSET 0.000000 0.000000 0.000000
										}
									}
								}
								JOINT LThumb
								{
									OFFSET 0.000000 0.000000 0.000000
									CHANNELS 3 Zrotation Yrotation Xrotation
									End Site
									{
										OFFSET 0.000000 0.000000 0.000000
									}
								}
							}
						}
					}
				}
				JOINT RightShoulder
				{
					OFFSET 0.000000 0.000000 0.000000
					CHANNELS 3 Zrotation Yrotation Xrotation
					JOINT RightArm
					{
						OFFSET -3.136600 1.374050 -0.404650
						CHANNELS 3 Zrotation Yrotation Xrotation
						JOINT RightForeArm
						{
							OFFSET -5.241900 -0.000000 -0.000000
							CHANNELS 3 Zrotation Yrotation Xrotation
							JOINT RightHand
							{
								OFFSET -3.444170 -0.000000 -0.000000
								CHANNELS 3 Zrotation Yrotation Xrotation
								JOINT RightFingerBase
								{
									OFFSET 0.000000 0.000000 0.000000
									CHANNELS 3 Zrotation Yrotation Xrotation
									JOINT RightHandIndex1
									{
										OFFSET -0.622530 -0.000000 -0.000000
										CHANNELS 3 Zrotation Yrotation Xrotation
										End Site
										{
											OFFSET 0.000000 0.000000 0.000000
										}
									}
								}
								JOINT RThumb
								{
									OFFSET 0.000000 0.000000 0.000000
									CHANNELS 3 Zrotation Yrotation Xrotation
									End Site
									{
										OFFSET 0.000000 0.000000 0.000000
									}
								}
							}
						}
					}
				}
			}
		}
	}
}
MOTION
Frames: 7
Frame Time: 0.008333
18.697012 17.789844 -16.748384 3.410463 0.349288 2.492878 -7.542260 0.486818 2.924115 -18.448265 -6.654164 -15.686747 1.125762 8.210607 25.472287 0.702588 -1.456837 1.555441 0.370500 -3.909900 -10.823300 2.920404 -1.117975 1.787369 9.323882 8.351218 -29.858824 -15.062671 -18.431542 74.302984 0.267548 -3.016454 2.904356 -0.018100 -0.868200 2.386200 -1.108918 0.480008 0.293048 0.804395 0.486210 -0.322997 -3.340749 0.125722 -0.986242 -5.397556 -5.004688 -10.759160 2.797100 -6.349026 7.067511 0.709400 -3.199400 5.130300 -5.028374 -2.133608 -0.046643 -91.121417 7.368313 -17.036190 8.774107 -8.404368 -0.461774 -2.244601 -0.984886 18.857845 21.364087 17.324749 7.882300 -7.125000 0.000000 0.000000 -5.034200 50.310600 -0.660400 1.861017 2.019217 0.176487 82.974625 22.557569 21.637569 -20.906171 29.534855 -6.037370 0.675269 -0.646642 -10.412756 -16.256021 28.212982 -8.306600 7.125000 0.000000 0.000000 8.101700 -0.256300 8.147300 
18.704714 17.775428 -16.595626 3.868542 0.592561 2.550548 -7.562528 0.517171 2.979914 -19.048781 -6.720986 -15.170560 1.151962 8.232463 25.566023 0.766024 -1.725087 1.060323 0.383800 -3.978700 -11.016600 2.924998 -1.111867 1.773902 8.533431 8.484025 -31.331727 -15.013332 -18.432375 74.194058 0.213855 -2.415059 1.792804 -0.002900 -0.344900 0.947700 -1.570560 0.219949 0.375140 0.830230 0.151546 -0.223927 -3.028773 -0.064425 -0.852803 -5.829750 -4.970261 -11.514532 2.955745 -6.182139 7.287255 0.822800 -3.118200 5.362200 -5.074371 -2.246608 -0.027277 -91.080731 6.204897 -14.491209 8.942044 -8.450966 -0.491751 -2.251685 -0.996993 17.134163 21.889746 16.913581 7.913600 -7.125000 0.000000 0.000000 -4.351200 49.921000 -0.528700 1.889590 2.111020 0.188962 83.224648 21.781325 21.758596 -20.625095 29.181832 -5.868223 0.717368 -0.712205 -10.287966 -17.228134 29.959732 -9.317900 7.125000 0.000000 0.000000 7.711200 1.736600 8.013400 
18.710343 17.756469 -16.445139 4.243346 0.856659 2.540940 -7.571701 0.538342 3.036832 -19.561399 -6.687829 -14.690887 1.187299 8.272954 25.711342 0.859739 -2.111837 0.580776 0.393800 -4.029400 -11.159500 2.933746 -1.105080 1.756921 7.908989 8.567957 -32.638576 -14.876360 -18.409009 73.809980 0.157758 -1.866077 0.832845 -0.020800 0.932100 -2.561900 -1.970060 0.098061 0.430654 0.733550 -0.026768 -0.534239 -2.885145 -0.162595 -1.261151 -5.496222 -4.763764 -10.063023 2.721770 -6.060318 6.918481 0.739200 -3.077100 4.955000 -5.094662 -2.326744 0.025379 -90.668266 5.173390 -15.235989 8.689338 -8.134569 -0.457958 -2.221408 -0.875040 18.992580 21.289559 16.589185 7.523500 -7.125000 0.000000 0.000000 -4.886500 49.408000 -0.532300 1.933206 2.118782 0.167722 83.667394 19.607923 21.664247 -20.559041 29.128650 -5.842615 0.718999 -0.715485 -10.210470 -17.070246 30.061613 -9.260200 7.125000 0.000000 0.000000 7.812100 1.813200 8.130500 
18.706097 17.737312 -16.299096 4.484280 1.134109 2.581452 -7.571677 0.557197 3.093791 -19.870794 -6.551367 -14.323708 1.215765 8.313938 25.837685 0.962897 -2.535477 0.265513 0.436600 -4.240200 -11.753600 2.943159 -1.094540 1.733147 7.485558 8.794086 -33.939393 -14.702556 -18.359129 73.299845 0.114115 -1.480830 -0.257339 -0.056000 1.526800 -4.199600 -2.379530 -0.018485 0.582244 0.802285 -0.167340 -0.291262 -2.543623 -0.248396 -1.032302 -5.406057 -4.872888 -11.353307 2.473939 -6.116111 7.320415 0.597400 -3.103200 5.315500 -5.080698 -2.386526 -0.002924 -90.675660 4.774171 -9.005644 9.395241 -8.762343 -0.560168 -2.068693 -1.160888 13.959163 20.717255 16.645837 7.343900 -7.125000 0.000000 0.000000 -5.564700 49.458200 -0.613400 1.952272 2.169051 0.180073 83.690292 19.028094 21.481174 -20.194284 28.663142 -5.638849 0.730015 -0.705941 -10.146003 -17.449330 29.545911 -9.333000 7.125000 0.000000 0.000000 7.527500 1.355300 7.770300 
18.703134 17.732573 -16.153151 4.415430 1.217292 2.797137 -7.567069 0.570432 3.136571 -19.826941 -6.400341 -14.153983 1.234049 8.357529 25.942214 1.012639 -2.700949 -0.079106 0.523100 -4.635200 -12.871000 2.954900 -1.088128 1.704258 7.390367 9.376810 -35.275471 -14.448612 -18.253173 72.521377 0.083288 -1.238373 -1.054316 -0.073100 1.744500 -4.799900 -2.467632 -0.080359 0.531326 0.993240 -0.233059 -0.147255 -2.274013 -0.291902 -0.847562 -5.850800 -5.033532 -11.970488 2.666383 -6.217120 7.438607 0.706400 -3.150800 5.491100 -5.066440 -2.403239 -0.049780 -91.119971 4.651989 -4.641216 10.310101 -9.866294 -0.734769 -1.967264 -1.387196 10.776992 20.719264 16.959408 7.490000 -7.125000 0.000000 0.000000 -5.725100 49.900900 -0.693700 1.961685 2.190191 0.191235 83.710312 18.126438 21.548207 -19.925363 28.309329 -5.483089 0.775545 -0.681700 -10.457079 -18.639407 29.028516 -9.849300 7.125000 0.000000 0.000000 6.752500 1.037500 6.921600 
18.704615 17.732770 -16.000196 4.426784 1.245555 2.977695 -7.572428 0.587750 3.187099 -19.895005 -6.318858 -13.863065 1.255459 8.400746 26.048411 1.027029 -2.687592 -0.691089 0.574700 -4.854700 -13.494700 2.971419 -1.084339 1.675351 7.167008 9.944275 -36.423975 -14.115714 -18.125825 71.484983 0.083334 -1.218182 -1.159357 -0.057800 1.551800 -4.268400 -2.549221 -0.230586 0.411985 1.042895 -0.431514 -0.208397 -2.153380 -0.399142 -0.873279 -5.704648 -4.845431 -11.258206 2.597301 -6.038787 6.852874 0.692100 -3.073000 5.150200 -5.039103 -2.449145 -0.054133 -91.222939 4.231089 -2.665960 10.934504 -10.707891 -0.872844 -1.843840 -1.595093 9.204482 19.890399 17.812034 7.514600 -7.125000 0.000000 0.000000 -6.924300 50.797100 -0.993200 1.981896 2.181088 0.187256 84.150935 16.590195 21.751582 -19.774057 28.123489 -5.406443 0.788219 -0.672621 -10.710314 -18.727200 28.872346 -9.854600 7.125000 0.000000 0.000000 6.676500 0.891900 6.825800 
18.707183 17.726055 -15.836576 4.620846 1.361827 3.016043 -7.591094 0.610611 3.264896 -20.166987 -6.266190 -13.337720 1.270673 8.420729 26.097683 1.046441 -2.690551 -1.374586 0.618700 -5.034000 -14.005500 2.990943 -1.089082 1.653658 6.731880 10.393221 -37.303131 -13.735813 -17.995224 70.303184 0.094317 -1.302814 -1.379692 -0.035400 1.213900 -3.337700 -2.906396 -0.715271 0.321180 0.822169 -1.105534 -0.546521 -2.107624 -0.738794 -1.169364 -4.231248 -4.127215 -9.807744 1.933821 -5.379231 6.352351 0.312800 -2.750800 4.650900 -4.970262 -2.484723 -0.025873 -90.575549 3.949440 -1.766850 11.228894 -11.173127 -0.950849 -1.741475 -1.654954 7.463212 19.608707 17.610971 7.317500 -7.125000 0.000000 0.000000 -7.195000 50.537600 -0.986300 2.016613 2.123110 0.160946 85.323563 14.515116 22.763167 -19.527386 27.823884 -5.293427 0.787987 -0.694952 -10.381287 -18.495312 29.202760 -9.831800 7.125000 0.000000 0.000000 6.851600 1.202100 7.044000 
